{"glyphs":{"0":{"ha":1046,"x_min":0,"x_max":0,"o":"m 523 996 b 44 486 290 996 44 855 b 523 -24 44 117 290 -24 b 1001 486 755 -24 1001 117 b 523 996 1001 855 755 996 z m 523 249 b 362 486 429 249 362 319 b 523 723 362 653 429 723 b 684 486 616 723 684 653 b 523 249 684 319 616 249 z "},"1":{"ha":547,"x_min":0,"x_max":0,"o":"m 40 844 l 40 568 l 168 645 l 168 0 l 491 0 l 491 972 l 254 972 z "},"2":{"ha":963,"x_min":0,"x_max":0,"o":"m 908 705 b 473 996 908 890 731 996 b 53 697 235 996 81 896 l 351 640 b 477 728 360 666 386 728 b 591 659 543 728 591 705 b 46 189 591 537 46 494 l 46 0 l 914 0 l 914 268 l 420 268 b 908 705 543 403 908 383 z "},"3":{"ha":994,"x_min":0,"x_max":0,"o":"m 811 500 b 935 705 883 553 935 623 b 499 996 935 880 757 996 b 65 697 261 996 93 896 l 363 640 b 499 728 372 666 408 728 b 617 655 564 728 617 705 b 499 583 617 610 564 583 b 390 584 499 583 390 584 l 390 393 l 488 393 b 629 319 566 393 629 372 b 488 245 629 265 558 245 b 330 326 417 245 355 286 l 32 243 b 488 -24 86 78 236 -24 b 946 292 724 -24 946 62 b 811 500 946 384 893 452 z "},"4":{"ha":1008,"x_min":0,"x_max":0,"o":"m 869 972 l 484 972 l 35 411 l 35 174 l 547 174 l 547 0 l 869 0 l 869 174 l 966 174 l 966 411 l 869 411 z m 547 411 l 271 411 l 547 755 z "},"5":{"ha":960,"x_min":0,"x_max":0,"o":"m 532 644 b 359 613 474 644 415 633 l 371 699 l 832 699 l 832 972 l 139 972 l 55 412 l 376 412 b 472 447 400 434 434 447 b 599 346 542 447 599 402 b 472 245 599 290 542 245 b 347 327 410 245 358 280 l 43 245 b 477 -24 79 70 259 -24 b 916 310 719 -24 916 76 b 532 644 916 532 775 644 z "},"6":{"ha":974,"x_min":0,"x_max":0,"o":"m 545 611 b 363 576 508 611 408 602 b 506 759 363 576 363 759 b 641 674 605 759 635 686 l 915 757 b 517 996 867 894 723 996 b 46 456 277 996 46 884 b 487 -24 46 98 244 -24 b 929 294 731 -24 929 87 b 545 611 929 506 789 611 z m 487 245 b 369 327 423 245 369 271 b 487 409 369 382 422 409 b 612 327 559 409 612 384 b 487 245 612 271 550 245 z "},"7":{"ha":850,"x_min":0,"x_max":0,"o":"m 36 678 l 490 678 l 88 0 l 411 0 l 813 678 l 813 972 l 36 972 z "},"8":{"ha":1019,"x_min":0,"x_max":0,"o":"m 822 535 b 909 712 874 580 909 640 b 509 996 909 901 730 996 b 109 712 288 996 109 901 b 196 535 109 640 144 580 b 42 295 101 478 42 394 b 509 -24 42 69 251 -24 b 976 295 767 -24 976 69 b 822 535 976 394 917 478 z m 509 759 b 596 689 553 759 596 739 b 509 618 596 638 549 618 b 422 689 469 618 422 638 b 509 759 422 739 465 759 z m 509 245 b 359 334 426 245 359 273 b 509 422 359 396 426 422 b 659 334 592 422 659 396 b 509 245 659 273 592 245 z "},"9":{"ha":974,"x_min":0,"x_max":0,"o":"m 486 996 b 44 678 242 996 44 885 b 428 361 44 466 184 361 b 610 397 466 361 565 370 b 468 213 610 397 611 213 b 332 298 368 213 338 286 l 58 216 b 456 -24 106 78 250 -24 b 928 516 696 -24 928 88 b 486 996 928 874 730 996 z m 486 564 b 362 646 414 564 362 588 b 486 728 362 702 423 728 b 604 646 550 728 604 701 b 486 564 604 591 552 564 z "},"\u0000":{"ha":0,"x_min":0,"x_max":0,"o":""},"\n":{"ha":0,"x_min":0,"x_max":0,"o":""},"\r":{"ha":0,"x_min":0,"x_max":0,"o":""}," ":{"ha":560,"x_min":0,"x_max":0,"o":""},"!":{"ha":433,"x_min":0,"x_max":0,"o":"m 255 -19 b 379 183 345 2 401 92 b 178 307 358 273 268 328 b 53 106 88 286 32 196 b 255 -19 74 15 165 -40 z m 108 375 l 325 375 l 363 728 l 378 972 l 55 972 l 69 728 z "},"\"":{"ha":668,"x_min":0,"x_max":0,"o":"m 41 931 l 81 690 l 263 690 l 303 931 l 319 1109 l 25 1109 z m 348 1109 l 364 931 l 404 690 l 587 690 l 626 931 l 642 1109 z "},"#":{"ha":1065,"x_min":0,"x_max":0,"o":"m 993 538 l 1023 775 l 902 775 l 927 972 l 633 972 l 608 775 l 529 775 l 554 972 l 260 972 l 235 775 l 114 775 l 84 538 l 205 538 l 193 435 l 71 435 l 42 197 l 163 197 l 138 0 l 432 0 l 457 197 l 536 197 l 511 0 l 805 0 l 830 197 l 951 197 l 981 435 l 859 435 l 872 538 z m 566 435 l 486 435 l 499 538 l 578 538 z "},"$":{"ha":926,"x_min":0,"x_max":0,"o":"m 555 576 b 515 585 541 579 528 582 l 515 684 b 592 636 548 675 577 659 l 863 691 b 515 928 839 782 710 905 l 515 996 l 406 996 l 406 931 b 59 686 171 921 59 820 b 406 400 59 500 273 428 l 406 300 b 330 352 380 311 355 328 l 36 282 b 406 43 91 185 200 64 l 406 -24 l 515 -24 l 515 41 b 884 307 795 55 884 199 b 555 576 884 448 798 520 z m 406 612 b 352 657 371 623 352 636 b 406 692 352 677 376 688 z m 515 278 l 515 378 b 592 325 570 365 592 352 b 515 278 592 298 560 280 z "},"%":{"ha":1304,"x_min":0,"x_max":0,"o":"m 740 972 l 327 0 l 564 0 l 976 972 z m 567 724 b 297 972 567 861 446 972 b 26 724 147 972 26 861 b 297 477 26 588 147 477 b 567 724 446 477 567 588 z m 297 667 b 234 724 262 667 234 693 b 297 782 234 756 262 782 b 359 724 331 782 359 756 b 297 667 359 693 331 667 z m 1007 496 b 737 248 858 496 737 385 b 1007 0 737 111 858 0 b 1277 248 1156 0 1277 111 b 1007 496 1277 385 1156 496 z m 1007 191 b 944 248 972 191 944 216 b 1007 305 944 279 972 305 b 1069 248 1041 305 1069 279 b 1007 191 1069 216 1041 191 z "},"&":{"ha":1167,"x_min":0,"x_max":0,"o":"m 1139 456 l 841 540 b 784 426 835 523 816 477 l 493 678 l 975 678 l 975 972 l 171 972 l 171 678 l 312 556 b 36 292 155 515 36 429 b 494 -24 36 62 258 -24 b 858 80 645 -24 765 19 l 950 0 l 1101 151 l 1015 226 b 1139 456 1079 307 1118 393 z m 494 245 b 353 319 424 245 353 265 b 494 393 353 373 417 393 l 498 393 l 631 278 b 494 245 592 258 546 245 z "},"'":{"ha":344,"x_min":0,"x_max":0,"o":"m 25 1109 l 41 931 l 81 690 l 263 690 l 303 931 l 319 1109 z "},"(":{"ha":471,"x_min":0,"x_max":0,"o":"m 435 1109 b 130 949 294 1109 192 1058 b 51 486 76 851 51 709 b 130 24 51 264 76 121 b 435 -137 192 -86 294 -137 l 435 100 b 288 486 367 100 288 147 b 435 873 288 825 367 873 z "},")":{"ha":471,"x_min":0,"x_max":0,"o":"m 339 949 b 35 1109 278 1058 175 1109 l 35 873 b 182 486 103 873 182 825 b 35 100 182 147 103 100 l 35 -137 b 339 24 175 -137 278 -86 b 418 486 394 121 418 264 b 339 949 418 709 394 851 z "},"*":{"ha":692,"x_min":0,"x_max":0,"o":"m 507 808 l 544 820 l 654 874 l 565 1034 l 461 969 l 422 937 l 431 987 l 437 1109 l 254 1109 l 261 987 l 269 937 l 230 969 l 127 1034 l 38 874 l 148 820 l 184 808 l 148 795 l 38 742 l 127 581 l 230 646 l 269 678 l 261 629 l 254 506 l 437 506 l 431 629 l 422 678 l 461 646 l 565 581 l 654 742 l 544 795 z "},"+":{"ha":844,"x_min":0,"x_max":0,"o":"m 540 604 l 540 872 l 304 872 l 304 604 l 36 604 l 36 368 l 304 368 l 304 100 l 540 100 l 540 368 l 808 368 l 808 604 z "},",":{"ha":419,"x_min":0,"x_max":0,"o":"m 46 301 l 40 29 l 142 29 b 137 -179 210 29 188 -116 l 230 -213 b 380 301 336 -115 380 83 z "},"-":{"ha":701,"x_min":0,"x_max":0,"o":"m 662 368 l 662 604 l 39 604 l 39 368 z "},".":{"ha":414,"x_min":0,"x_max":0,"o":"m 255 -16 b 367 193 344 10 394 104 b 158 305 340 281 247 331 b 46 95 69 278 19 184 b 255 -16 73 7 167 -43 z "},"/":{"ha":788,"x_min":0,"x_max":0,"o":"m 482 972 l 69 0 l 306 0 l 718 972 z "},":":{"ha":428,"x_min":0,"x_max":0,"o":"m 213 562 b 381 730 306 562 381 637 b 213 898 381 823 306 898 b 46 730 121 898 46 823 b 213 562 46 637 121 562 z m 213 75 b 381 242 306 75 381 150 b 213 410 381 335 306 410 b 46 242 121 410 46 335 b 213 75 46 150 121 75 z "},";":{"ha":435,"x_min":0,"x_max":0,"o":"m 217 562 b 385 730 310 562 385 637 b 217 898 385 823 310 898 b 49 730 124 898 49 823 b 217 562 49 637 124 562 z m 53 410 l 47 138 l 149 138 b 144 -70 217 138 195 -7 l 237 -104 b 387 410 343 -6 387 193 l 53 410 z "},"<":{"ha":776,"x_min":0,"x_max":0,"o":"m 727 882 l 39 613 l 39 613 l 39 359 l 39 359 l 727 90 l 727 344 l 364 486 l 727 628 z "},"=":{"ha":824,"x_min":0,"x_max":0,"o":"m 777 574 l 777 810 l 46 810 l 46 574 z m 777 162 l 777 398 l 46 398 l 46 162 z "},">":{"ha":776,"x_min":0,"x_max":0,"o":"m 737 613 l 49 882 l 49 628 l 412 486 l 49 344 l 49 90 l 737 359 l 737 359 l 737 613 z "},"?":{"ha":918,"x_min":0,"x_max":0,"o":"m 450 996 b 31 697 213 996 59 897 l 329 640 b 455 728 338 666 364 728 b 569 659 520 728 569 706 b 348 375 569 567 348 566 l 565 375 b 886 705 614 493 886 464 b 450 996 886 891 708 996 z m 545 1 b 599 232 624 50 648 153 b 369 287 551 311 447 335 b 314 56 290 238 265 135 b 545 1 363 -23 466 -47 z "},"@":{"ha":1217,"x_min":0,"x_max":0,"o":"m 1155 585 b 43 439 996 1209 38 1092 b 868 -64 33 24 508 -262 l 804 89 b 208 439 549 -62 200 140 b 996 543 204 901 883 985 b 964 313 1024 437 1012 353 b 876 297 933 288 897 287 b 851 342 859 305 851 319 l 851 697 l 686 697 l 686 676 b 592 700 664 690 635 700 b 348 439 461 700 348 583 b 590 178 348 295 463 178 b 716 228 645 178 690 198 b 806 148 737 194 767 166 b 905 126 837 133 871 126 b 1069 187 963 126 1021 147 b 1165 347 1117 226 1150 282 b 1155 585 1182 417 1178 497 z m 686 381 b 609 342 669 358 641 342 b 513 439 556 342 513 386 b 609 535 513 492 556 535 b 686 496 641 535 669 519 z "},"A":{"ha":1122,"x_min":0,"x_max":0,"o":"m 790 972 l 331 972 l -10 0 l 324 0 l 372 139 l 749 139 l 798 0 l 1131 0 z m 455 376 l 561 676 l 666 376 z "},"B":{"ha":1042,"x_min":0,"x_max":0,"o":"m 866 512 b 987 715 942 552 987 625 b 537 972 987 934 751 972 l 56 972 l 56 0 l 576 0 b 1018 272 752 0 1018 38 b 866 512 1018 378 967 460 z m 378 700 l 596 700 b 670 648 650 700 670 675 b 596 591 670 622 654 591 l 378 591 z m 570 272 l 378 272 l 378 405 l 570 405 b 686 339 634 405 686 393 b 570 272 686 285 641 272 z "},"C":{"ha":1094,"x_min":0,"x_max":0,"o":"m 764 421 b 554 249 740 292 642 249 b 338 486 453 249 338 305 b 554 723 338 667 453 723 b 753 592 632 723 718 690 l 1044 713 b 554 996 957 914 751 996 b 21 486 295 996 21 855 b 554 -24 21 117 295 -24 b 1084 421 797 -24 1054 100 z "},"D":{"ha":1058,"x_min":0,"x_max":0,"o":"m 501 972 l 56 972 l 56 0 l 501 0 b 1036 486 711 0 1036 73 b 501 972 1036 898 711 972 z m 443 272 l 378 272 l 378 700 l 443 700 b 704 486 564 700 704 670 b 443 272 704 302 564 272 z "},"E":{"ha":953,"x_min":0,"x_max":0,"o":"m 378 272 l 378 380 l 850 380 l 850 616 l 378 616 l 378 700 l 889 700 l 889 972 l 56 972 l 56 0 l 921 0 l 921 272 z "},"F":{"ha":910,"x_min":0,"x_max":0,"o":"m 889 700 l 889 972 l 56 972 l 56 0 l 378 0 l 378 356 l 850 356 l 850 593 l 378 593 l 378 700 z "},"G":{"ha":1101,"x_min":0,"x_max":0,"o":"m 531 552 l 531 316 l 716 316 b 554 249 673 267 611 249 b 338 486 453 249 338 305 b 554 723 338 667 453 723 b 753 592 632 723 718 690 l 1044 713 b 554 996 957 914 751 996 b 21 486 295 996 21 855 b 554 -24 21 117 295 -24 b 879 71 672 -24 787 5 l 937 0 l 1063 0 l 1063 552 z "},"H":{"ha":1118,"x_min":0,"x_max":0,"o":"m 739 972 l 739 634 l 378 634 l 378 972 l 56 972 l 56 0 l 378 0 l 378 362 l 739 362 l 739 0 l 1061 0 l 1061 972 z "},"I":{"ha":435,"x_min":0,"x_max":0,"o":"m 378 0 l 378 972 l 56 972 l 56 0 z "},"J":{"ha":690,"x_min":0,"x_max":0,"o":"m 325 972 l 325 414 b 202 249 325 278 256 249 b 102 281 163 249 132 259 l -13 8 b 198 -24 44 -12 108 -24 b 647 387 504 -24 647 147 l 647 972 z "},"K":{"ha":1058,"x_min":0,"x_max":0,"o":"m 672 563 l 988 972 l 676 972 l 378 587 l 378 972 l 56 972 l 56 0 l 378 0 l 378 182 l 483 318 l 711 0 l 1075 0 z "},"L":{"ha":875,"x_min":0,"x_max":0,"o":"m 378 272 l 378 972 l 56 972 l 56 0 l 872 0 l 872 272 z "},"M":{"ha":1256,"x_min":0,"x_max":0,"o":"m 827 972 l 627 375 l 428 972 l 56 972 l 56 0 l 378 0 l 378 390 l 491 0 l 764 0 l 877 390 l 877 0 l 1199 0 l 1199 972 z "},"N":{"ha":1082,"x_min":0,"x_max":0,"o":"m 704 972 l 704 461 l 378 972 l 378 972 l 56 972 l 56 0 l 378 0 l 378 511 l 704 0 l 1026 0 l 1026 972 z "},"O":{"ha":1108,"x_min":0,"x_max":0,"o":"m 554 996 b 21 486 295 996 21 855 b 554 -24 21 117 295 -24 b 1087 486 813 -24 1087 117 b 554 996 1087 855 813 996 z m 554 249 b 338 486 453 249 338 305 b 554 723 338 667 453 723 b 770 486 655 723 770 667 b 554 249 770 305 655 249 z "},"P":{"ha":979,"x_min":0,"x_max":0,"o":"m 466 972 l 56 972 l 56 0 l 378 0 l 378 214 l 466 214 b 965 593 737 214 965 281 b 466 972 965 905 737 972 z m 531 486 l 378 486 l 378 700 l 531 700 b 647 593 622 700 647 639 b 531 486 647 547 622 486 z "},"Q":{"ha":1110,"x_min":0,"x_max":0,"o":"m 1087 486 b 554 996 1087 855 813 996 b 21 486 295 996 21 855 b 554 -24 21 117 295 -24 b 659 -16 589 -24 624 -21 l 814 -184 l 1014 0 l 924 98 b 1087 486 1022 179 1087 305 z m 554 249 b 338 486 453 249 338 305 b 554 723 338 667 453 723 b 770 486 655 723 770 667 b 554 249 770 305 655 249 z "},"R":{"ha":1032,"x_min":0,"x_max":0,"o":"m 845 346 b 965 616 919 400 965 485 b 466 972 965 909 737 972 l 56 972 l 56 0 l 378 0 l 378 259 l 466 259 b 555 262 496 259 526 260 l 694 0 l 1029 0 z m 540 532 l 378 532 l 378 700 l 540 700 b 647 616 618 700 647 659 b 540 532 647 573 618 532 z "},"S":{"ha":1000,"x_min":0,"x_max":0,"o":"m 604 589 b 372 681 458 623 372 633 b 466 723 372 712 419 723 b 646 657 534 723 615 705 l 956 720 b 482 996 926 836 746 996 b 38 714 180 996 38 877 b 457 383 38 490 309 412 b 646 302 594 356 646 347 b 552 249 646 270 607 249 b 347 333 499 249 417 262 l 11 253 b 507 -24 81 131 224 -24 b 980 282 867 -24 980 152 b 604 589 980 442 881 524 z "},"T":{"ha":946,"x_min":0,"x_max":0,"o":"m 1 972 l 1 700 l 311 700 l 311 0 l 634 0 l 634 700 l 944 700 l 944 972 z "},"U":{"ha":1064,"x_min":0,"x_max":0,"o":"m 698 972 l 698 414 b 532 249 698 278 602 249 b 366 414 461 249 366 278 l 366 972 l 43 972 l 43 388 b 532 -23 43 160 169 -23 b 1020 388 895 -23 1020 160 l 1020 972 z "},"V":{"ha":1122,"x_min":0,"x_max":0,"o":"m 798 972 l 561 295 l 324 972 l -10 972 l 331 0 l 790 0 l 1131 972 z "},"W":{"ha":1476,"x_min":0,"x_max":0,"o":"m 1128 972 l 1023 296 l 897 972 l 578 972 l 452 296 l 348 972 l 0 972 l 223 0 l 678 0 l 738 371 l 798 0 l 1253 0 l 1476 972 z "},"X":{"ha":1044,"x_min":0,"x_max":0,"o":"m 719 484 l 1035 972 l 671 972 l 535 751 l 383 972 l 7 972 l 321 516 l -10 0 l 355 0 l 506 248 l 677 0 l 1054 0 z "},"Y":{"ha":1104,"x_min":0,"x_max":0,"o":"m 804 972 l 575 610 l 346 972 l -19 972 l 392 322 l 392 0 l 715 0 l 715 328 l 1123 972 z "},"Ÿ":{"ha":1104,"x_min":0,"x_max":0,"o":"m 804 972 l 575 610 l 346 972 l -19 972 l 392 322 l 392 0 l 715 0 l 715 328 l 1123 972 z "},"Z":{"ha":968,"x_min":0,"x_max":0,"o":"m 422 272 l 919 700 l 919 972 l 51 972 l 51 700 l 528 700 l 28 272 l 28 0 l 941 0 l 941 272 z "},"[":{"ha":501,"x_min":0,"x_max":0,"o":"m 475 873 l 475 1109 l 56 1109 l 56 -137 l 475 -137 l 475 100 l 292 100 l 292 873 z "},"\\":{"ha":788,"x_min":0,"x_max":0,"o":"m 306 972 l 69 972 l 482 0 l 718 0 z "},"]":{"ha":501,"x_min":0,"x_max":0,"o":"m 25 1109 l 25 873 l 208 873 l 208 100 l 25 100 l 25 -137 l 445 -137 l 445 1109 z "},"^":{"ha":661,"x_min":0,"x_max":0,"o":"m 457 1109 l 457 1109 l 203 1109 l 203 1109 l 31 667 l 277 667 l 330 877 l 384 667 l 630 667 z "},"_":{"ha":735,"x_min":0,"x_max":0,"o":"m 679 -237 l 679 0 l 56 0 l 56 -237 z "},"`":{"ha":439,"x_min":0,"x_max":0,"o":"m 260 1109 l -61 1109 l 203 690 l 406 690 z "},"a":{"ha":1122,"x_min":0,"x_max":0,"o":"m 790 972 l 331 972 l -10 0 l 324 0 l 372 139 l 749 139 l 798 0 l 1131 0 z m 455 376 l 561 676 l 666 376 z "},"b":{"ha":1042,"x_min":0,"x_max":0,"o":"m 866 512 b 987 715 942 552 987 625 b 537 972 987 934 751 972 l 56 972 l 56 0 l 576 0 b 1018 272 752 0 1018 38 b 866 512 1018 378 967 460 z m 378 700 l 596 700 b 670 648 650 700 670 675 b 596 591 670 622 654 591 l 378 591 z m 570 272 l 378 272 l 378 405 l 570 405 b 686 339 634 405 686 393 b 570 272 686 285 641 272 z "},"c":{"ha":1094,"x_min":0,"x_max":0,"o":"m 764 421 b 554 249 740 292 642 249 b 338 486 453 249 338 305 b 554 723 338 667 453 723 b 753 592 632 723 718 690 l 1044 713 b 554 996 957 914 751 996 b 21 486 295 996 21 855 b 554 -24 21 117 295 -24 b 1084 421 797 -24 1054 100 z "},"d":{"ha":1058,"x_min":0,"x_max":0,"o":"m 501 972 l 56 972 l 56 0 l 501 0 b 1036 486 711 0 1036 73 b 501 972 1036 898 711 972 z m 443 272 l 378 272 l 378 700 l 443 700 b 704 486 564 700 704 670 b 443 272 704 302 564 272 z "},"e":{"ha":953,"x_min":0,"x_max":0,"o":"m 378 272 l 378 380 l 850 380 l 850 616 l 378 616 l 378 700 l 889 700 l 889 972 l 56 972 l 56 0 l 921 0 l 921 272 z "},"f":{"ha":910,"x_min":0,"x_max":0,"o":"m 889 700 l 889 972 l 56 972 l 56 0 l 378 0 l 378 356 l 850 356 l 850 593 l 378 593 l 378 700 z "},"g":{"ha":1101,"x_min":0,"x_max":0,"o":"m 531 552 l 531 316 l 716 316 b 554 249 673 267 611 249 b 338 486 453 249 338 305 b 554 723 338 667 453 723 b 753 592 632 723 718 690 l 1044 713 b 554 996 957 914 751 996 b 21 486 295 996 21 855 b 554 -24 21 117 295 -24 b 879 71 672 -24 787 5 l 937 0 l 1063 0 l 1063 552 z "},"h":{"ha":1118,"x_min":0,"x_max":0,"o":"m 739 972 l 739 634 l 378 634 l 378 972 l 56 972 l 56 0 l 378 0 l 378 362 l 739 362 l 739 0 l 1061 0 l 1061 972 z "},"i":{"ha":435,"x_min":0,"x_max":0,"o":"m 378 0 l 378 972 l 56 972 l 56 0 z "},"j":{"ha":690,"x_min":0,"x_max":0,"o":"m 325 972 l 325 414 b 202 249 325 278 256 249 b 102 281 163 249 132 259 l -13 8 b 198 -24 44 -12 108 -24 b 647 387 504 -24 647 147 l 647 972 z "},"k":{"ha":1058,"x_min":0,"x_max":0,"o":"m 672 563 l 988 972 l 676 972 l 378 587 l 378 972 l 56 972 l 56 0 l 378 0 l 378 182 l 483 318 l 711 0 l 1075 0 z "},"l":{"ha":875,"x_min":0,"x_max":0,"o":"m 378 272 l 378 972 l 56 972 l 56 0 l 872 0 l 872 272 z "},"m":{"ha":1256,"x_min":0,"x_max":0,"o":"m 827 972 l 627 375 l 428 972 l 56 972 l 56 0 l 378 0 l 378 390 l 491 0 l 764 0 l 877 390 l 877 0 l 1199 0 l 1199 972 z "},"n":{"ha":1082,"x_min":0,"x_max":0,"o":"m 704 972 l 704 461 l 378 972 l 378 972 l 56 972 l 56 0 l 378 0 l 378 511 l 704 0 l 1026 0 l 1026 972 z "},"o":{"ha":1108,"x_min":0,"x_max":0,"o":"m 554 996 b 21 486 295 996 21 855 b 554 -24 21 117 295 -24 b 1087 486 813 -24 1087 117 b 554 996 1087 855 813 996 z m 554 249 b 338 486 453 249 338 305 b 554 723 338 667 453 723 b 770 486 655 723 770 667 b 554 249 770 305 655 249 z "},"p":{"ha":979,"x_min":0,"x_max":0,"o":"m 466 972 l 56 972 l 56 0 l 378 0 l 378 214 l 466 214 b 965 593 737 214 965 281 b 466 972 965 905 737 972 z m 531 486 l 378 486 l 378 700 l 531 700 b 647 593 622 700 647 639 b 531 486 647 547 622 486 z "},"q":{"ha":1110,"x_min":0,"x_max":0,"o":"m 1087 486 b 554 996 1087 855 813 996 b 21 486 295 996 21 855 b 554 -24 21 117 295 -24 b 659 -16 589 -24 624 -21 l 814 -184 l 1014 0 l 924 98 b 1087 486 1022 179 1087 305 z m 554 249 b 338 486 453 249 338 305 b 554 723 338 667 453 723 b 770 486 655 723 770 667 b 554 249 770 305 655 249 z "},"r":{"ha":1032,"x_min":0,"x_max":0,"o":"m 845 346 b 965 616 919 400 965 485 b 466 972 965 909 737 972 l 56 972 l 56 0 l 378 0 l 378 259 l 466 259 b 555 262 496 259 526 260 l 694 0 l 1029 0 z m 540 532 l 378 532 l 378 700 l 540 700 b 647 616 618 700 647 659 b 540 532 647 573 618 532 z "},"s":{"ha":1000,"x_min":0,"x_max":0,"o":"m 604 589 b 372 681 458 623 372 633 b 466 723 372 712 419 723 b 646 657 534 723 615 705 l 956 720 b 482 996 926 836 746 996 b 38 714 180 996 38 877 b 457 383 38 490 309 412 b 646 302 594 356 646 347 b 552 249 646 270 607 249 b 347 333 499 249 417 262 l 11 253 b 507 -24 81 131 224 -24 b 980 282 867 -24 980 152 b 604 589 980 442 881 524 z "},"t":{"ha":946,"x_min":0,"x_max":0,"o":"m 1 972 l 1 700 l 311 700 l 311 0 l 634 0 l 634 700 l 944 700 l 944 972 z "},"u":{"ha":1064,"x_min":0,"x_max":0,"o":"m 698 972 l 698 414 b 532 249 698 278 602 249 b 366 414 461 249 366 278 l 366 972 l 43 972 l 43 388 b 532 -23 43 160 169 -23 b 1020 388 895 -23 1020 160 l 1020 972 z "},"v":{"ha":1122,"x_min":0,"x_max":0,"o":"m 798 972 l 561 295 l 324 972 l -10 972 l 331 0 l 790 0 l 1131 972 z "},"w":{"ha":1476,"x_min":0,"x_max":0,"o":"m 1128 972 l 1023 296 l 897 972 l 578 972 l 452 296 l 348 972 l 0 972 l 223 0 l 678 0 l 738 371 l 798 0 l 1253 0 l 1476 972 z "},"x":{"ha":1044,"x_min":0,"x_max":0,"o":"m 719 484 l 1035 972 l 671 972 l 535 751 l 383 972 l 7 972 l 321 516 l -10 0 l 355 0 l 506 248 l 677 0 l 1054 0 z "},"y":{"ha":1104,"x_min":0,"x_max":0,"o":"m 804 972 l 575 610 l 346 972 l -19 972 l 392 322 l 392 0 l 715 0 l 715 328 l 1123 972 z "},"ÿ":{"ha":1104,"x_min":0,"x_max":0,"o":"m 804 972 l 575 610 l 346 972 l -19 972 l 392 322 l 392 0 l 715 0 l 715 328 l 1123 972 z "},"z":{"ha":968,"x_min":0,"x_max":0,"o":"m 422 272 l 919 700 l 919 972 l 51 972 l 51 700 l 528 700 l 28 272 l 28 0 l 941 0 l 941 272 z "},"{":{"ha":494,"x_min":0,"x_max":0,"o":"m 368 873 l 453 873 l 453 1109 b 255 1077 375 1109 311 1105 b 131 833 131 1015 131 878 b 131 799 131 822 131 811 b 99 584 131 725 132 617 b 40 569 89 574 69 569 l 40 404 b 99 388 69 404 89 399 b 131 173 132 355 131 248 b 131 140 131 162 131 151 b 255 -105 131 94 131 -43 b 453 -137 311 -133 375 -136 l 453 100 l 368 100 l 368 169 b 367 172 367 170 367 171 b 368 208 367 183 368 195 l 368 208 b 284 486 367 297 358 416 b 368 764 358 556 367 676 l 368 764 b 367 801 368 777 367 789 b 368 803 367 802 367 802 z "},"|":{"ha":349,"x_min":0,"x_max":0,"o":"m 292 -137 l 292 1109 l 56 1109 l 56 -137 z "},"}":{"ha":494,"x_min":0,"x_max":0,"o":"m 395 584 b 363 799 362 617 362 725 b 363 833 363 811 363 822 b 239 1077 363 878 363 1015 b 40 1109 183 1105 119 1109 l 40 873 l 126 873 l 126 803 b 126 801 126 802 126 802 b 126 764 126 789 126 777 l 126 764 b 210 486 126 676 136 556 b 126 208 136 416 126 297 l 126 208 b 126 172 126 195 126 183 b 126 169 126 171 126 170 l 126 100 l 40 100 l 40 -137 b 239 -105 119 -136 183 -133 b 363 140 363 -43 363 94 b 363 173 363 151 363 162 b 395 388 362 248 362 355 b 453 404 405 399 424 404 l 453 569 b 395 584 424 569 405 574 z "}," ":{"ha":560,"x_min":0,"x_max":0,"o":""},"¥":{"ha":1282,"x_min":0,"x_max":0,"o":"m 1212 972 l 893 972 l 664 610 l 435 972 l 69 972 l 432 399 l 269 399 l 269 281 l 481 281 l 481 214 l 269 214 l 269 95 l 481 95 l 481 0 l 804 0 l 804 95 l 1016 95 l 1016 214 l 804 214 l 804 281 l 1016 281 l 1016 399 l 849 399 z "},"­":{"ha":0,"x_min":0,"x_max":0,"o":""},"À":{"ha":1125,"x_min":0,"x_max":0,"o":"m 822 1139 l 561 1430 l 302 1268 l 666 1084 z m 792 972 l 333 972 l -8 0 l 325 0 l 374 139 l 750 139 l 799 0 l 1133 0 z m 457 376 l 562 676 l 667 376 z "},"Á":{"ha":1125,"x_min":0,"x_max":0,"o":"m 822 1268 l 563 1430 l 302 1139 l 458 1084 z m 792 972 l 333 972 l -8 0 l 325 0 l 374 139 l 750 139 l 799 0 l 1133 0 z m 457 376 l 562 676 l 667 376 z "},"Â":{"ha":1125,"x_min":0,"x_max":0,"o":"m 562 1188 l 625 1084 l 906 1084 l 638 1391 l 487 1391 l 219 1084 l 499 1084 z m 792 972 l 333 972 l -8 0 l 325 0 l 374 139 l 750 139 l 799 0 l 1133 0 z m 457 376 l 562 676 l 667 376 z "},"Ã":{"ha":1125,"x_min":0,"x_max":0,"o":"m 443 1169 b 512 1148 471 1169 492 1161 b 682 1091 553 1122 600 1091 b 847 1212 803 1091 847 1212 l 847 1404 b 682 1318 847 1404 779 1318 b 612 1339 654 1318 632 1327 b 443 1396 572 1365 524 1396 b 278 1276 321 1396 278 1276 l 278 1084 b 443 1169 278 1084 345 1169 z m 792 972 l 333 972 l -8 0 l 325 0 l 374 139 l 750 139 l 799 0 l 1133 0 z m 457 376 l 562 676 l 667 376 z "},"Ä":{"ha":1125,"x_min":0,"x_max":0,"o":"m 520 1176 b 439 1372 552 1253 515 1341 b 243 1291 362 1404 275 1368 b 324 1095 211 1215 248 1127 b 520 1176 401 1063 488 1100 z m 743 1084 b 893 1234 826 1084 893 1151 b 743 1384 893 1317 826 1384 b 593 1234 660 1384 593 1317 b 743 1084 593 1151 660 1084 z m 792 972 l 333 972 l -8 0 l 325 0 l 374 139 l 750 139 l 799 0 l 1133 0 z m 457 376 l 562 676 l 667 376 z "},"Å":{"ha":1125,"x_min":0,"x_max":0,"o":"m 562 1047 b 759 1244 671 1047 759 1135 b 562 1440 759 1352 671 1440 b 365 1244 454 1440 365 1352 b 562 1047 365 1135 454 1047 z m 562 1297 b 616 1244 592 1297 616 1273 b 562 1190 616 1214 592 1190 b 509 1244 533 1190 509 1214 b 562 1297 509 1273 533 1297 z m 792 972 l 333 972 l -8 0 l 325 0 l 374 139 l 750 139 l 799 0 l 1133 0 z m 457 376 l 562 676 l 667 376 z "},"Æ":{"ha":1449,"x_min":0,"x_max":0,"o":"m 875 272 l 875 380 l 1346 380 l 1346 616 l 875 616 l 875 700 l 1386 700 l 1386 972 l 333 972 l -8 0 l 325 0 l 374 139 l 552 139 l 552 0 l 1418 0 l 1418 272 l 875 272 z m 552 376 l 457 376 l 552 648 z "},"Ç":{"ha":1094,"x_min":0,"x_max":0,"o":"m 764 421 b 554 249 740 292 642 249 b 338 486 453 249 338 305 b 554 723 338 667 453 723 b 753 592 632 723 718 690 l 1044 713 b 554 996 957 914 751 996 b 21 486 295 996 21 855 b 310 22 21 235 148 90 l 216 -110 l 437 -269 l 614 -21 b 1084 421 838 -2 1056 127 l 764 421 z "},"È":{"ha":953,"x_min":0,"x_max":0,"o":"m 748 1139 l 487 1430 l 229 1268 l 593 1084 z m 378 272 l 378 380 l 850 380 l 850 616 l 378 616 l 378 700 l 889 700 l 889 972 l 56 972 l 56 0 l 921 0 l 921 272 z "},"É":{"ha":953,"x_min":0,"x_max":0,"o":"m 748 1268 l 489 1430 l 229 1139 l 384 1084 z m 378 272 l 378 380 l 850 380 l 850 616 l 378 616 l 378 700 l 889 700 l 889 972 l 56 972 l 56 0 l 921 0 l 921 272 z "},"Ê":{"ha":953,"x_min":0,"x_max":0,"o":"m 488 1188 l 551 1084 l 832 1084 l 564 1391 l 413 1391 l 145 1084 l 425 1084 z m 378 272 l 378 380 l 850 380 l 850 616 l 378 616 l 378 700 l 889 700 l 889 972 l 56 972 l 56 0 l 921 0 l 921 272 z "},"Ë":{"ha":953,"x_min":0,"x_max":0,"o":"m 446 1176 b 365 1372 478 1253 442 1341 b 169 1291 288 1404 201 1368 b 250 1095 137 1215 174 1127 b 446 1176 327 1063 414 1100 z m 808 1176 b 726 1372 839 1253 803 1341 b 530 1291 650 1404 562 1368 b 611 1095 499 1215 535 1127 b 808 1176 688 1063 776 1100 z m 378 272 l 378 380 l 850 380 l 850 616 l 378 616 l 378 700 l 889 700 l 889 972 l 56 972 l 56 0 l 921 0 l 921 272 z "},"Ì":{"ha":433,"x_min":0,"x_max":0,"o":"m 476 1139 l 216 1430 l -43 1268 l 321 1084 z m 378 0 l 378 972 l 55 972 l 55 0 z "},"Í":{"ha":433,"x_min":0,"x_max":0,"o":"m 476 1268 l 218 1430 l -43 1139 l 112 1084 z m 378 0 l 378 972 l 55 972 l 55 0 z "},"Î":{"ha":435,"x_min":0,"x_max":0,"o":"m 217 1188 l 280 1084 l 561 1084 l 293 1391 l 142 1391 l -126 1084 l 154 1084 z m 378 0 l 378 972 l 56 972 l 56 0 z "},"Ï":{"ha":435,"x_min":0,"x_max":0,"o":"m 36 1084 b 186 1234 119 1084 186 1151 b 36 1384 186 1317 119 1384 b -114 1234 -47 1384 -114 1317 b 36 1084 -114 1151 -47 1084 z m 455 1095 b 536 1291 531 1127 568 1215 b 340 1372 504 1368 417 1404 b 259 1176 264 1341 227 1253 b 455 1095 291 1100 378 1063 z m 378 0 l 378 972 l 56 972 l 56 0 z "},"Ð":{"ha":1113,"x_min":0,"x_max":0,"o":"m 555 972 l 110 972 l 110 545 l 11 545 l 11 427 l 110 427 l 110 0 l 555 0 b 1090 486 765 0 1090 73 b 555 972 1090 898 765 972 z m 497 272 l 432 272 l 432 427 l 600 427 l 600 545 l 432 545 l 432 700 l 497 700 b 758 486 618 700 758 670 b 497 272 758 302 618 272 z "},"Ñ":{"ha":1082,"x_min":0,"x_max":0,"o":"m 422 1169 b 491 1148 449 1169 471 1161 b 660 1091 531 1122 579 1091 b 825 1212 782 1091 825 1212 l 825 1404 b 660 1318 825 1404 758 1318 b 591 1339 632 1318 611 1327 b 422 1396 550 1365 503 1396 b 256 1276 300 1396 256 1276 l 256 1084 b 422 1169 256 1084 324 1169 z m 704 972 l 704 461 l 378 972 l 378 972 l 56 972 l 56 0 l 378 0 l 378 511 l 704 0 l 1026 0 l 1026 972 z "},"Ò":{"ha":1108,"x_min":0,"x_max":0,"o":"m 814 1139 l 553 1430 l 294 1268 l 658 1084 z m 554 996 b 21 486 295 996 21 855 b 554 -24 21 117 295 -24 b 1087 486 813 -24 1087 117 b 554 996 1087 855 813 996 z m 554 249 b 338 486 453 249 338 305 b 554 723 338 667 453 723 b 770 486 655 723 770 667 b 554 249 770 305 655 249 z "},"Ó":{"ha":1108,"x_min":0,"x_max":0,"o":"m 814 1268 l 555 1430 l 294 1139 l 450 1084 z m 554 996 b 21 486 295 996 21 855 b 554 -24 21 117 295 -24 b 1087 486 813 -24 1087 117 b 554 996 1087 855 813 996 z m 554 249 b 338 486 453 249 338 305 b 554 723 338 667 453 723 b 770 486 655 723 770 667 b 554 249 770 305 655 249 z "},"Ô":{"ha":1108,"x_min":0,"x_max":0,"o":"m 554 1188 l 617 1084 l 898 1084 l 629 1391 l 479 1391 l 211 1084 l 491 1084 z m 554 996 b 21 486 295 996 21 855 b 554 -24 21 117 295 -24 b 1087 486 813 -24 1087 117 b 554 996 1087 855 813 996 z m 554 249 b 338 486 453 249 338 305 b 554 723 338 667 453 723 b 770 486 655 723 770 667 b 554 249 770 305 655 249 z "},"Õ":{"ha":1108,"x_min":0,"x_max":0,"o":"m 435 1169 b 504 1148 463 1169 484 1161 b 674 1091 545 1122 592 1091 b 839 1212 795 1091 839 1212 l 839 1404 b 674 1318 839 1404 771 1318 b 604 1339 646 1318 624 1327 b 435 1396 564 1365 516 1396 b 270 1276 313 1396 270 1276 l 270 1084 b 435 1169 270 1084 337 1169 z m 554 996 b 21 486 295 996 21 855 b 554 -24 21 117 295 -24 b 1087 486 813 -24 1087 117 b 554 996 1087 855 813 996 z m 554 249 b 338 486 453 249 338 305 b 554 723 338 667 453 723 b 770 486 655 723 770 667 b 554 249 770 305 655 249 z "},"Ö":{"ha":1108,"x_min":0,"x_max":0,"o":"m 431 1095 b 512 1291 507 1127 544 1215 b 316 1372 480 1368 393 1404 b 235 1176 240 1341 203 1253 b 431 1095 267 1100 354 1063 z m 792 1095 b 873 1291 869 1127 905 1215 b 677 1372 842 1368 754 1404 b 596 1176 601 1341 564 1253 b 792 1095 628 1100 716 1063 z m 554 996 b 21 486 295 996 21 855 b 554 -24 21 117 295 -24 b 1087 486 813 -24 1087 117 b 554 996 1087 855 813 996 z m 554 249 b 338 486 453 249 338 305 b 554 723 338 667 453 723 b 770 486 655 723 770 667 b 554 249 770 305 655 249 z "},"×":{"ha":786,"x_min":0,"x_max":0,"o":"m 749 675 l 582 843 l 393 653 l 203 843 l 36 675 l 225 486 l 36 297 l 203 130 l 393 319 l 582 130 l 749 297 l 560 486 z "},"Ø":{"ha":1108,"x_min":0,"x_max":0,"o":"m 864 1023 l 809 945 b 554 996 730 980 641 996 b 21 486 295 996 21 855 b 204 83 21 294 96 163 l 110 -51 l 244 -51 l 299 27 b 554 -24 378 -8 467 -24 b 1087 486 813 -24 1087 117 b 905 890 1087 679 1013 809 l 998 1023 z m 338 486 b 554 723 338 667 453 723 b 643 707 583 723 614 719 l 379 333 b 338 486 354 369 338 419 z m 554 249 b 466 265 525 249 494 254 l 729 640 b 770 486 754 603 770 553 b 554 249 770 305 655 249 z "},"Ù":{"ha":1064,"x_min":0,"x_max":0,"o":"m 791 1139 l 531 1430 l 272 1268 l 636 1084 z m 698 972 l 698 414 b 532 249 698 278 602 249 b 366 414 461 249 366 278 l 366 972 l 43 972 l 43 388 b 532 -23 43 160 169 -23 b 1020 388 895 -23 1020 160 l 1020 972 z "},"Ú":{"ha":1064,"x_min":0,"x_max":0,"o":"m 791 1268 l 533 1430 l 272 1139 l 427 1084 z m 698 972 l 698 414 b 532 249 698 278 602 249 b 366 414 461 249 366 278 l 366 972 l 43 972 l 43 388 b 532 -23 43 160 169 -23 b 1020 388 895 -23 1020 160 l 1020 972 z "},"Û":{"ha":1064,"x_min":0,"x_max":0,"o":"m 532 1188 l 595 1084 l 875 1084 l 607 1391 l 456 1391 l 188 1084 l 469 1084 z m 698 972 l 698 414 b 532 249 698 278 602 249 b 366 414 461 249 366 278 l 366 972 l 43 972 l 43 388 b 532 -23 43 160 169 -23 b 1020 388 895 -23 1020 160 l 1020 972 z "},"Ü":{"ha":1064,"x_min":0,"x_max":0,"o":"m 351 1084 b 501 1234 434 1084 501 1151 b 351 1384 501 1317 434 1384 b 201 1234 268 1384 201 1317 b 351 1084 201 1151 268 1084 z m 712 1084 b 862 1234 795 1084 862 1151 b 712 1384 862 1317 795 1384 b 562 1234 629 1384 562 1317 b 712 1084 562 1151 629 1084 z m 698 972 l 698 414 b 532 249 698 278 602 249 b 366 414 461 249 366 278 l 366 972 l 43 972 l 43 388 b 532 -23 43 160 169 -23 b 1020 388 895 -23 1020 160 l 1020 972 z "},"Ý":{"ha":1104,"x_min":0,"x_max":0,"o":"m 812 1268 l 553 1430 l 292 1139 l 448 1084 z m 804 972 l 575 610 l 346 972 l -19 972 l 392 322 l 392 0 l 715 0 l 715 328 l 1123 972 z "},"à":{"ha":1125,"x_min":0,"x_max":0,"o":"m 822 1139 l 561 1430 l 302 1268 l 666 1084 z m 792 972 l 333 972 l -8 0 l 325 0 l 374 139 l 750 139 l 799 0 l 1133 0 z m 457 376 l 562 676 l 667 376 z "},"á":{"ha":1125,"x_min":0,"x_max":0,"o":"m 822 1268 l 563 1430 l 302 1139 l 458 1084 z m 792 972 l 333 972 l -8 0 l 325 0 l 374 139 l 750 139 l 799 0 l 1133 0 z m 457 376 l 562 676 l 667 376 z "},"â":{"ha":1125,"x_min":0,"x_max":0,"o":"m 562 1188 l 625 1084 l 906 1084 l 638 1391 l 487 1391 l 219 1084 l 499 1084 z m 792 972 l 333 972 l -8 0 l 325 0 l 374 139 l 750 139 l 799 0 l 1133 0 z m 457 376 l 562 676 l 667 376 z "},"ã":{"ha":1125,"x_min":0,"x_max":0,"o":"m 443 1169 b 512 1148 471 1169 492 1161 b 682 1091 553 1122 600 1091 b 847 1212 803 1091 847 1212 l 847 1404 b 682 1318 847 1404 779 1318 b 612 1339 654 1318 632 1327 b 443 1396 572 1365 524 1396 b 278 1276 321 1396 278 1276 l 278 1084 b 443 1169 278 1084 345 1169 z m 792 972 l 333 972 l -8 0 l 325 0 l 374 139 l 750 139 l 799 0 l 1133 0 z m 457 376 l 562 676 l 667 376 z "},"ä":{"ha":1125,"x_min":0,"x_max":0,"o":"m 520 1176 b 439 1372 552 1253 515 1341 b 243 1291 362 1404 275 1368 b 324 1095 211 1215 248 1127 b 520 1176 401 1063 488 1100 z m 743 1084 b 893 1234 826 1084 893 1151 b 743 1384 893 1317 826 1384 b 593 1234 660 1384 593 1317 b 743 1084 593 1151 660 1084 z m 792 972 l 333 972 l -8 0 l 325 0 l 374 139 l 750 139 l 799 0 l 1133 0 z m 457 376 l 562 676 l 667 376 z "},"å":{"ha":1125,"x_min":0,"x_max":0,"o":"m 562 1047 b 759 1244 671 1047 759 1135 b 562 1440 759 1352 671 1440 b 365 1244 454 1440 365 1352 b 562 1047 365 1135 454 1047 z m 562 1297 b 616 1244 592 1297 616 1273 b 562 1190 616 1214 592 1190 b 509 1244 533 1190 509 1214 b 562 1297 509 1273 533 1297 z m 792 972 l 333 972 l -8 0 l 325 0 l 374 139 l 750 139 l 799 0 l 1133 0 z m 457 376 l 562 676 l 667 376 z "},"æ":{"ha":1449,"x_min":0,"x_max":0,"o":"m 875 272 l 875 380 l 1346 380 l 1346 616 l 875 616 l 875 700 l 1386 700 l 1386 972 l 333 972 l -8 0 l 325 0 l 374 139 l 552 139 l 552 0 l 1418 0 l 1418 272 l 875 272 z m 552 376 l 457 376 l 552 648 z "},"ç":{"ha":1094,"x_min":0,"x_max":0,"o":"m 764 421 b 554 249 740 292 642 249 b 338 486 453 249 338 305 b 554 723 338 667 453 723 b 753 592 632 723 718 690 l 1044 713 b 554 996 957 914 751 996 b 21 486 295 996 21 855 b 310 22 21 235 148 90 l 216 -110 l 437 -269 l 614 -21 b 1084 421 838 -2 1056 127 l 764 421 z "},"è":{"ha":953,"x_min":0,"x_max":0,"o":"m 748 1139 l 487 1430 l 229 1268 l 593 1084 z m 378 272 l 378 380 l 850 380 l 850 616 l 378 616 l 378 700 l 889 700 l 889 972 l 56 972 l 56 0 l 921 0 l 921 272 z "},"é":{"ha":953,"x_min":0,"x_max":0,"o":"m 748 1268 l 489 1430 l 229 1139 l 384 1084 z m 378 272 l 378 380 l 850 380 l 850 616 l 378 616 l 378 700 l 889 700 l 889 972 l 56 972 l 56 0 l 921 0 l 921 272 z "},"ê":{"ha":953,"x_min":0,"x_max":0,"o":"m 488 1188 l 551 1084 l 832 1084 l 564 1391 l 413 1391 l 145 1084 l 425 1084 z m 378 272 l 378 380 l 850 380 l 850 616 l 378 616 l 378 700 l 889 700 l 889 972 l 56 972 l 56 0 l 921 0 l 921 272 z "},"ë":{"ha":953,"x_min":0,"x_max":0,"o":"m 446 1176 b 365 1372 478 1253 442 1341 b 169 1291 288 1404 201 1368 b 250 1095 137 1215 174 1127 b 446 1176 327 1063 414 1100 z m 808 1176 b 726 1372 839 1253 803 1341 b 530 1291 650 1404 562 1368 b 611 1095 499 1215 535 1127 b 808 1176 688 1063 776 1100 z m 378 272 l 378 380 l 850 380 l 850 616 l 378 616 l 378 700 l 889 700 l 889 972 l 56 972 l 56 0 l 921 0 l 921 272 z "},"ì":{"ha":433,"x_min":0,"x_max":0,"o":"m 476 1139 l 216 1430 l -43 1268 l 321 1084 z m 378 0 l 378 972 l 55 972 l 55 0 z "},"í":{"ha":433,"x_min":0,"x_max":0,"o":"m 476 1268 l 218 1430 l -43 1139 l 112 1084 z m 378 0 l 378 972 l 55 972 l 55 0 z "},"î":{"ha":435,"x_min":0,"x_max":0,"o":"m 217 1188 l 280 1084 l 561 1084 l 293 1391 l 142 1391 l -126 1084 l 154 1084 z m 378 0 l 378 972 l 56 972 l 56 0 z "},"ï":{"ha":435,"x_min":0,"x_max":0,"o":"m 36 1084 b 186 1234 119 1084 186 1151 b 36 1384 186 1317 119 1384 b -114 1234 -47 1384 -114 1317 b 36 1084 -114 1151 -47 1084 z m 455 1095 b 536 1291 531 1127 568 1215 b 340 1372 504 1368 417 1404 b 259 1176 264 1341 227 1253 b 455 1095 291 1100 378 1063 z m 378 0 l 378 972 l 56 972 l 56 0 z "},"ñ":{"ha":1082,"x_min":0,"x_max":0,"o":"m 422 1169 b 491 1148 449 1169 471 1161 b 660 1091 531 1122 579 1091 b 825 1212 782 1091 825 1212 l 825 1404 b 660 1318 825 1404 758 1318 b 591 1339 632 1318 611 1327 b 422 1396 550 1365 503 1396 b 256 1276 300 1396 256 1276 l 256 1084 b 422 1169 256 1084 324 1169 z m 704 972 l 704 461 l 378 972 l 378 972 l 56 972 l 56 0 l 378 0 l 378 511 l 704 0 l 1026 0 l 1026 972 z "},"ò":{"ha":1108,"x_min":0,"x_max":0,"o":"m 814 1139 l 553 1430 l 294 1268 l 658 1084 z m 554 996 b 21 486 295 996 21 855 b 554 -24 21 117 295 -24 b 1087 486 813 -24 1087 117 b 554 996 1087 855 813 996 z m 554 249 b 338 486 453 249 338 305 b 554 723 338 667 453 723 b 770 486 655 723 770 667 b 554 249 770 305 655 249 z "},"ó":{"ha":1108,"x_min":0,"x_max":0,"o":"m 814 1268 l 555 1430 l 294 1139 l 450 1084 z m 554 996 b 21 486 295 996 21 855 b 554 -24 21 117 295 -24 b 1087 486 813 -24 1087 117 b 554 996 1087 855 813 996 z m 554 249 b 338 486 453 249 338 305 b 554 723 338 667 453 723 b 770 486 655 723 770 667 b 554 249 770 305 655 249 z "},"ô":{"ha":1108,"x_min":0,"x_max":0,"o":"m 554 1188 l 617 1084 l 898 1084 l 629 1391 l 479 1391 l 211 1084 l 491 1084 z m 554 996 b 21 486 295 996 21 855 b 554 -24 21 117 295 -24 b 1087 486 813 -24 1087 117 b 554 996 1087 855 813 996 z m 554 249 b 338 486 453 249 338 305 b 554 723 338 667 453 723 b 770 486 655 723 770 667 b 554 249 770 305 655 249 z "},"õ":{"ha":1108,"x_min":0,"x_max":0,"o":"m 435 1169 b 504 1148 463 1169 484 1161 b 674 1091 545 1122 592 1091 b 839 1212 795 1091 839 1212 l 839 1404 b 674 1318 839 1404 771 1318 b 604 1339 646 1318 624 1327 b 435 1396 564 1365 516 1396 b 270 1276 313 1396 270 1276 l 270 1084 b 435 1169 270 1084 337 1169 z m 554 996 b 21 486 295 996 21 855 b 554 -24 21 117 295 -24 b 1087 486 813 -24 1087 117 b 554 996 1087 855 813 996 z m 554 249 b 338 486 453 249 338 305 b 554 723 338 667 453 723 b 770 486 655 723 770 667 b 554 249 770 305 655 249 z "},"ö":{"ha":1108,"x_min":0,"x_max":0,"o":"m 431 1095 b 512 1291 507 1127 544 1215 b 316 1372 480 1368 393 1404 b 235 1176 240 1341 203 1253 b 431 1095 267 1100 354 1063 z m 792 1095 b 873 1291 869 1127 905 1215 b 677 1372 842 1368 754 1404 b 596 1176 601 1341 564 1253 b 792 1095 628 1100 716 1063 z m 554 996 b 21 486 295 996 21 855 b 554 -24 21 117 295 -24 b 1087 486 813 -24 1087 117 b 554 996 1087 855 813 996 z m 554 249 b 338 486 453 249 338 305 b 554 723 338 667 453 723 b 770 486 655 723 770 667 b 554 249 770 305 655 249 z "},"÷":{"ha":682,"x_min":0,"x_max":0,"o":"m 652 368 l 652 604 l 29 604 l 29 368 z m 436 695 b 436 885 488 747 488 832 b 246 885 383 937 298 937 b 246 695 193 832 193 747 b 436 695 298 643 383 643 z m 372 52 b 471 213 444 69 488 141 b 310 313 454 285 382 330 b 210 152 238 296 193 224 b 372 52 227 79 299 35 z "},"ø":{"ha":1108,"x_min":0,"x_max":0,"o":"m 905 890 l 998 1023 l 864 1023 l 809 945 b 554 996 730 980 641 996 b 21 486 295 996 21 855 b 204 83 21 294 96 163 l 110 -51 l 244 -51 l 299 27 b 554 -24 378 -8 467 -24 b 1087 486 813 -24 1087 117 b 905 890 1087 679 1013 809 z m 338 486 b 554 723 338 667 453 723 b 643 707 583 723 614 719 l 379 333 b 338 486 354 369 338 419 z m 554 249 b 466 265 525 249 494 254 l 729 640 b 770 486 754 603 770 553 b 554 249 770 305 655 249 z "},"ù":{"ha":1064,"x_min":0,"x_max":0,"o":"m 791 1139 l 531 1430 l 272 1268 l 636 1084 z m 698 972 l 698 414 b 532 249 698 278 602 249 b 366 414 461 249 366 278 l 366 972 l 43 972 l 43 388 b 532 -23 43 160 169 -23 b 1020 388 895 -23 1020 160 l 1020 972 z "},"ú":{"ha":1064,"x_min":0,"x_max":0,"o":"m 791 1268 l 533 1430 l 272 1139 l 427 1084 z m 698 972 l 698 414 b 532 249 698 278 602 249 b 366 414 461 249 366 278 l 366 972 l 43 972 l 43 388 b 532 -23 43 160 169 -23 b 1020 388 895 -23 1020 160 l 1020 972 z "},"û":{"ha":1064,"x_min":0,"x_max":0,"o":"m 532 1188 l 595 1084 l 875 1084 l 607 1391 l 456 1391 l 188 1084 l 469 1084 z m 698 972 l 698 414 b 532 249 698 278 602 249 b 366 414 461 249 366 278 l 366 972 l 43 972 l 43 388 b 532 -23 43 160 169 -23 b 1020 388 895 -23 1020 160 l 1020 972 z "},"ü":{"ha":1064,"x_min":0,"x_max":0,"o":"m 351 1084 b 501 1234 434 1084 501 1151 b 351 1384 501 1317 434 1384 b 201 1234 268 1384 201 1317 b 351 1084 201 1151 268 1084 z m 712 1084 b 862 1234 795 1084 862 1151 b 712 1384 862 1317 795 1384 b 562 1234 629 1384 562 1317 b 712 1084 562 1151 629 1084 z m 698 972 l 698 414 b 532 249 698 278 602 249 b 366 414 461 249 366 278 l 366 972 l 43 972 l 43 388 b 532 -23 43 160 169 -23 b 1020 388 895 -23 1020 160 l 1020 972 z "},"ý":{"ha":1104,"x_min":0,"x_max":0,"o":"m 812 1268 l 553 1430 l 292 1139 l 448 1084 z m 804 972 l 575 610 l 346 972 l -19 972 l 392 322 l 392 0 l 715 0 l 715 328 l 1123 972 z "},"‘":{"ha":422,"x_min":0,"x_max":0,"o":"m 278 867 b 283 1076 210 867 232 1012 l 190 1109 b 40 596 84 1011 40 813 l 374 596 l 380 867 l 278 867 z "},"’":{"ha":406,"x_min":0,"x_max":0,"o":"m 40 1109 l 35 837 l 136 837 b 132 629 205 837 182 692 l 224 596 b 374 1109 331 694 374 892 z "},"“":{"ha":803,"x_min":0,"x_max":0,"o":"m 659 867 b 664 1076 591 867 613 1012 l 571 1109 b 421 596 465 1011 421 813 l 755 596 l 761 867 z m 283 1076 l 190 1109 b 40 596 84 1011 40 813 l 374 596 l 380 867 l 278 867 b 283 1076 210 867 232 1012 z "},"”":{"ha":786,"x_min":0,"x_max":0,"o":"m 136 837 b 132 629 205 837 182 692 l 224 596 b 374 1109 331 694 374 892 l 40 1109 l 35 837 z m 421 1109 l 416 837 l 518 837 b 513 629 586 837 563 692 l 606 596 b 755 1109 712 694 755 892 z "},"€":{"ha":1215,"x_min":0,"x_max":0,"o":"m 858 421 b 648 249 834 292 736 249 b 472 334 584 249 515 272 l 697 334 l 697 452 l 434 452 b 432 486 433 463 432 474 b 434 520 432 498 433 509 l 697 520 l 697 638 l 472 638 b 648 723 515 701 584 723 b 847 592 726 723 812 690 l 1138 713 b 648 996 1051 914 845 996 b 133 638 428 996 198 894 l 36 638 l 36 520 l 116 520 b 115 486 115 509 115 498 b 116 452 115 475 115 463 l 36 452 l 36 334 l 133 334 b 648 -24 198 78 428 -24 b 1179 421 891 -24 1148 100 z "}}}
